<?xml version="1.0" encoding="UTF-8" standalone="no"?>
<svg
   xmlns:dc="http://purl.org/dc/elements/1.1/"
   xmlns:cc="http://creativecommons.org/ns#"
   xmlns:rdf="http://www.w3.org/1999/02/22-rdf-syntax-ns#"
   xmlns:svg="http://www.w3.org/2000/svg"
   xmlns="http://www.w3.org/2000/svg"
   viewBox="0 0 2829.3333 2829.3333"
   height="2829.3333"
   width="2829.3333"
   xml:space="preserve"
   id="svg2"
   version="1.1"><metadata
     id="metadata8"><rdf:RDF><cc:Work
         rdf:about=""><dc:format>image/svg+xml</dc:format><dc:type
           rdf:resource="http://purl.org/dc/dcmitype/StillImage" /></cc:Work></rdf:RDF></metadata><defs
     id="defs6" /><g
     transform="matrix(1.3333333,0,0,-1.3333333,0,2829.3333)"
     id="g10"><g
       transform="scale(0.1)"
       id="g12"><g
         transform="scale(1.15893)"
         id="g14"><path
           id="path16"
           style="fill:#ddddf2;fill-opacity:1;fill-rule:nonzero;stroke:none"
           d="M 6772.03,5229.13 H 2607.57 v 129.18 H 6772.03 Z M 2657.01,7392.85 H 10590.3 V 7263.68 H 2657.01 Z m 24.77,1017.23 H 10615 V 8280.91 H 2681.78 Z m 24.71,1017.24 H 10639.8 V 9298.23 H 2706.49 Z m 24.72,1017.28 h 7933.29 v -129.1 H 2731.21 Z m 24.72,1017.3 h 7933.27 v -129.2 H 2755.93 Z m 24.71,1017.3 H 10713.9 V 12350 H 2780.64 Z m 24.73,1017.2 h 7933.23 v -129.1 H 2805.37 Z M 8965.6,3536.28 9301.25,4976.14 10180.5,6246.45 H 2632.29 v 129.09 h 7637.61 l 1394.2,2014.18 v 597.1 c -77.6,-40.12 -174.2,-37.27 -251,15.97 -110.8,76.62 -138.4,228.48 -61.8,339.27 l 312.8,451.76 V 14449.1 H 9813.19 V 16300 H 1830.5 V 2015.82 h 9833.6 v 4463.95 l -1469,-2122.3 -1229.5,-821.19" /></g><g
         transform="scale(1.15893)"
         id="g18"><path
           id="path20"
           style="fill:#bdbfe6;fill-opacity:1;fill-rule:nonzero;stroke:none"
           d="M 11664.1,14449.1 9813.19,16300 v -1850.9 h 1850.91" /></g><path
         id="path22"
         style="fill:#3f3e63;fill-opacity:1;fill-rule:nonzero;stroke:none"
         d="M 12445.3,15641.4 H 3251.23 v -149.6 h 9194.07 v 149.6" /><path
         id="path24"
         style="fill:#3f3e63;fill-opacity:1;fill-rule:nonzero;stroke:none"
         d="M 12416.7,14462.5 H 3222.57 v -149.7 h 9194.13 v 149.7" /><path
         id="path26"
         style="fill:#3f3e63;fill-opacity:1;fill-rule:nonzero;stroke:none"
         d="M 12388,13283.5 H 3193.93 v -149.6 H 12388 v 149.6" /><path
         id="path28"
         style="fill:#3f3e63;fill-opacity:1;fill-rule:nonzero;stroke:none"
         d="M 12359.4,12104.6 H 3165.28 v -149.7 h 9194.12 v 149.7" /><path
         id="path30"
         style="fill:#3f3e63;fill-opacity:1;fill-rule:nonzero;stroke:none"
         d="M 12330.8,10925.6 H 3136.63 V 10776 h 9194.17 v 149.6" /><path
         id="path32"
         style="fill:#3f3e63;fill-opacity:1;fill-rule:nonzero;stroke:none"
         d="M 12302.1,9746.7 H 3107.99 V 9597 h 9194.11 v 149.7" /><path
         id="path34"
         style="fill:#3f3e63;fill-opacity:1;fill-rule:nonzero;stroke:none"
         d="M 12273.4,8567.8 H 3079.29 v -149.7 h 9194.11 v 149.7" /><path
         id="path36"
         style="fill:#3f3e63;fill-opacity:1;fill-rule:nonzero;stroke:none"
         d="m 3021.99,6060.2 h 4826.32 v 149.7 H 3021.99 v -149.7" /><g
         transform="scale(1.0964)"
         id="g38"><path
           id="path40"
           style="fill:#3f3e63;fill-opacity:1;fill-rule:nonzero;stroke:none"
           d="m 15500.7,12440.2 v 0.1 c -261,180.5 -326,538.4 -145.5,799.3 L 12329.4,8868.22 10855.6,6739.15 H 2782.42 v -136.44 h 7978.68 l -929.37,-1342.76 944.87,-653.96 1552.8,2243.34 3970.6,5736.27 c -180.6,-260.8 -538.5,-325.9 -799.3,-145.4" /></g><g
         transform="scale(1.1543)"
         id="g42"><path
           id="path44"
           style="fill:#3f3e63;fill-opacity:1;fill-rule:nonzero;stroke:none"
           d="m 16300,13135.5 v 0 l -692.8,-1000.8 692.8,1000.8" /></g><path
         id="path46"
         style="fill:#302e4f;fill-opacity:1;fill-rule:nonzero;stroke:none"
         d="m 11815.4,5050 -1035.9,717 -389,-1668.7 z" /><g
         transform="scale(1.17655)"
         id="g48"><path
           id="path50"
           style="fill:#302e4f;fill-opacity:1;fill-rule:nonzero;stroke:none"
           d="m 15996.1,13834.2 v 0 c -243,168.3 -576.6,107.6 -744.8,-135.5 l -785.6,-1135 -138.4,-199.9 -18.2,-26.1 c 0,0 0,-0.1 0,-0.1 -168.2,-243.1 -107.6,-576.6 135.6,-744.8 v -0.1 c 243,-168.2 576.6,-107.6 744.9,135.5 0,0 0,0 0,0 l 122.4,177 679.7,981.9 140,202.2 c 168.3,243.1 107.6,576.6 -135.6,744.9" /></g><g
         transform="scale(1.04415)"
         id="g52"><path
           id="path54"
           style="fill:#4ac3ce;fill-opacity:1;fill-rule:nonzero;stroke:none"
           d="m 12667.8,9992.46 c 85.2,-59.09 192.5,-62.25 278.6,-17.72 38,19.64 71.9,48.56 97.9,86.16 l 2815.5,4067.5 284.3,-196.7 155.9,225.2 -288.1,199.4 c 52.8,116.8 16.7,258.2 -92.5,333.7 -123,85.1 -291.5,54.4 -376.6,-68.5 l -2596.4,-3751.1 -347.2,-501.4 c -85.1,-122.9 -54.4,-291.5 68.6,-376.54" /></g></g></g></svg>